<?xml version="1.0" encoding="UTF-8"?>
<svg width="31px" height="32px" viewBox="0 0 31 32" version="1.1" xmlns="http://www.w3.org/2000/svg" xmlns:xlink="http://www.w3.org/1999/xlink">
    <!-- Generator: Sketch 53.2 (72643) - https://sketchapp.com -->
    <title>Group 7</title>
    <desc>Created with Sketch.</desc>
    <g id="40---Generic-content-page" stroke="none" stroke-width="1" fill="none" fill-rule="evenodd">
        <g id="40---Desktop---Generic-content-page" transform="translate(-1210.000000, -66.000000)">
            <g id="Group-5" transform="translate(1210.200000, 66.500000)">
                <g id="Group-7">
                    <polygon id="Fill-1" fill="#FFFFFF" points="30.8029544 -9.02912621e-05 9.02912621e-05 15.4014922 15.4013718 30.8027738 30.8029544 15.4014922"></polygon>
                    <g id="Group-6" transform="translate(6.019417, 4.016456)" fill="#000000" fill-rule="nonzero">
                        <path d="M4.40816643,3.77323136 L6.12340639,4.33799388 C5.97178848,4.79847254 5.89361165,5.28259918 5.89361165,5.7783699 C5.89361165,8.31868063 7.95288318,10.3781078 10.4930485,10.3781078 C13.0332866,10.3781078 15.0927864,8.31860794 15.0927864,5.7783699 C15.0927864,3.23820454 13.0333593,1.17893301 10.4930485,1.17893301 L5.7948932,1.17893301 L5.7948932,-0.626892233 L10.4930485,-0.626892233 C14.0306585,-0.626892233 16.8986117,2.24084425 16.8986117,5.7783699 C16.8986117,9.31593769 14.0306163,12.183933 10.4930485,12.183933 C6.95552289,12.183933 4.08778641,9.31597982 4.08778641,5.7783699 C4.08778641,5.09007929 4.19674207,4.41534817 4.40816643,3.77323136 Z" id="Stroke-2"></path>
                        <path d="M2.28456918,20.9569932 L3.92788551,15.4480171 C4.2009485,14.5331526 5.04238962,13.9058476 5.99696505,13.9058476 L15.2900427,13.9058476 C16.2448443,13.9058476 17.0863389,14.533081 17.3591123,15.4469777 L19.3939764,22.2347738 L17.6642061,22.7533291 L15.6290311,15.9644936 C15.5842595,15.8144917 15.446318,15.7116728 15.2900427,15.7116728 L5.99696505,15.7116728 C5.84097847,15.7116728 5.70304572,15.8145034 5.65831926,15.964354 L3.63035121,22.7628184 L0.23487767,22.7628184 L0.23487767,20.9569932 L2.28456918,20.9569932 Z" id="Stroke-4"></path>
                    </g>
                </g>
            </g>
        </g>
    </g>
</svg>